<?xml version="1.0" encoding="iso-8859-1"?>
<!-- Generator: Adobe Illustrator 17.0.0, SVG Export Plug-In . SVG Version: 6.00 Build 0)  -->
<!DOCTYPE svg PUBLIC "-//W3C//DTD SVG 1.1//EN" "http://www.w3.org/Graphics/SVG/1.1/DTD/svg11.dtd">
<svg version="1.1" xmlns="http://www.w3.org/2000/svg" xmlns:xlink="http://www.w3.org/1999/xlink" x="0px" y="0px" width="21px"
	 height="21px" viewBox="0 0 21 21" style="enable-background:new 0 0 21 21;" xml:space="preserve">
<g id="Shape_1_copy_3_1_" style="enable-background:new    ;">
	<g id="Shape_1_copy_3">
		<g>
			<rect style="fill-rule:evenodd;clip-rule:evenodd;fill:#3A9CD7;" width="21" height="21"/>
		</g>
	</g>
</g>
<g id="Shape_2_1_" style="enable-background:new    ;">
	<g id="Shape_2">
		<g>
			
				<rect x="3.782" y="3.782" transform="matrix(0.7071 -0.7071 0.7071 0.7071 -4.3492 10.5)" style="fill-rule:evenodd;clip-rule:evenodd;fill:#FFFFFF;" width="13.435" height="13.435"/>
		</g>
	</g>
</g>
<g id="Shape_11_1_" style="enable-background:new    ;">
	<g id="Shape_11">
		<g>
			<path style="fill-rule:evenodd;clip-rule:evenodd;fill:#FDB813;" d="M14.944,12.015V6.183h-1.007
				c-0.196,0.464-0.436,0.949-0.722,1.457c-0.286,0.507-0.596,1.015-0.932,1.524s-0.687,1.011-1.055,1.506
				c-0.368,0.495-0.732,0.96-1.093,1.395v0.875h3.877v2.076h0.932v-2.076h1.058v-0.924H14.944z M14.012,12.015h-2.813
				c0.188-0.25,0.387-0.515,0.598-0.795c0.211-0.279,0.432-0.591,0.664-0.936s0.476-0.729,0.733-1.152
				c0.257-0.423,0.529-0.903,0.817-1.441V12.015z M6.977,6.401C6.777,6.543,6.565,6.679,6.341,6.808
				C6.117,6.937,5.889,7.054,5.657,7.159C5.425,7.264,5.205,7.347,4.998,7.408v1.022c0.184-0.049,0.373-0.117,0.566-0.203
				C5.758,8.141,5.942,8.049,6.117,7.95c0.175-0.099,0.332-0.198,0.472-0.299c0.14-0.101,0.246-0.19,0.319-0.268v7.631h0.943V5.986
				H7.494C7.349,6.121,7.176,6.26,6.977,6.401z"/>
		</g>
	</g>
</g>
</svg>
