<?xml version="1.0" encoding="utf-8"?>
<!-- Generator: Adobe Illustrator 18.0.0, SVG Export Plug-In . SVG Version: 6.00 Build 0)  -->
<!DOCTYPE svg PUBLIC "-//W3C//DTD SVG 1.1//EN" "http://www.w3.org/Graphics/SVG/1.1/DTD/svg11.dtd">
<svg version="1.1" xmlns="http://www.w3.org/2000/svg" xmlns:xlink="http://www.w3.org/1999/xlink" x="0px" y="0px"
	 viewBox="0 0 21 21" enable-background="new 0 0 21 21" xml:space="preserve">
<g id="Shape_1_copy_2_1_" enable-background="new    ">
	<g id="Shape_1_copy_2">
		<g>
			<rect fill-rule="evenodd" clip-rule="evenodd" fill="#3A9CD7" width="21" height="21"/>
		</g>
	</g>
</g>
<g id="Shape_7_1_" enable-background="new    ">
	<g id="Shape_7">
		<g>
			<path fill-rule="evenodd" clip-rule="evenodd" fill="#FFFFFF" d="M10.5,4C7.7,4,5.1,4.3,3,4.8c0.2,5.7,2.3,10.7,7.5,13.2
				c5.2-2.5,7.3-7.4,7.5-13.2C15.9,4.3,13.3,4,10.5,4z"/>
		</g>
	</g>
</g>
<g id="Shape_8_1_" enable-background="new    ">
	<g id="Shape_8">
		<g>
			<path fill-rule="evenodd" clip-rule="evenodd" fill="#FDB813" d="M9.4,13.4c0-0.2,0-0.4,0.1-0.6c0.1-0.2,0.2-0.3,0.3-0.5
				c0.2-0.2,0.4-0.4,0.6-0.6c0.3-0.2,0.6-0.4,1-0.7c0.3-0.2,0.6-0.4,0.8-0.7c0.2-0.2,0.4-0.4,0.6-0.7c0.2-0.2,0.3-0.5,0.3-0.8
				c0.1-0.3,0.1-0.6,0.1-0.9c0-0.4-0.1-0.7-0.2-1c-0.1-0.3-0.3-0.5-0.5-0.7S12.1,6,11.8,5.9c-0.3-0.1-0.6-0.1-1-0.1
				c-0.5,0-0.9,0.1-1.2,0.2C9.3,6.1,9,6.3,8.7,6.5v1C8.9,7.4,9,7.3,9.2,7.2s0.3-0.2,0.5-0.3c0.2-0.1,0.3-0.2,0.5-0.2
				c0.2-0.1,0.4-0.1,0.6-0.1c0.2,0,0.4,0,0.6,0.1s0.4,0.2,0.5,0.3C12,7,12.1,7.2,12.2,7.4c0.1,0.2,0.1,0.4,0.1,0.7
				c0,0.2,0,0.4-0.1,0.7c-0.1,0.2-0.1,0.4-0.3,0.6c-0.1,0.2-0.3,0.4-0.5,0.6c-0.2,0.2-0.5,0.4-0.8,0.6c-0.4,0.3-0.8,0.6-1.1,0.8
				s-0.5,0.5-0.7,0.7c-0.2,0.2-0.3,0.5-0.4,0.8c-0.1,0.3-0.1,0.6-0.1,0.9v0.4h5.2v-0.9H9.4z"/>
		</g>
	</g>
</g>
</svg>
