<?xml version="1.0" encoding="utf-8"?>
<!-- Generator: Adobe Illustrator 18.0.0, SVG Export Plug-In . SVG Version: 6.00 Build 0)  -->
<!DOCTYPE svg PUBLIC "-//W3C//DTD SVG 1.1//EN" "http://www.w3.org/Graphics/SVG/1.1/DTD/svg11.dtd">
<svg version="1.1" xmlns="http://www.w3.org/2000/svg" xmlns:xlink="http://www.w3.org/1999/xlink"  width="30px" height="30px" x="0px" y="0px"
	 viewBox="0 0 21 21" enable-background="new 0 0 21 21" xml:space="preserve">
<g id="矩形_1_1_" enable-background="new    ">
	<g id="矩形_1">
		<g>
			<rect x="0" y="0" fill-rule="evenodd" clip-rule="evenodd" fill="#3A9CD7" width="21" height="21"/>
		</g>
	</g>
</g>
<g id="矩形_6_1_" enable-background="new    ">
	<g id="矩形_6">
		<g>
			
				<rect x="3" y="3" transform="matrix(0.7071 -0.7071 0.7071 0.7071 -4.3486 10.4985)" fill-rule="evenodd" clip-rule="evenodd" fill="#FFFFFF" width="15" height="15"/>
		</g>
	</g>
</g>
<g id="_x33_0_1_" enable-background="new    ">
	<g id="_x33_0">
		<g>
			<path fill-rule="evenodd" clip-rule="evenodd" fill="#FDB813" d="M7.1,10.3L7.1,10.3c1.4-0.4,2-1.1,2-2.3c0-0.6-0.3-1.2-0.8-1.6
				C7.8,6,7.1,5.8,6.2,5.8C5.3,5.8,4.6,6,3.9,6.3v1.1c0.6-0.4,1.3-0.6,2-0.6c1.2,0,1.9,0.5,1.9,1.5c0,1.1-0.8,1.6-2.4,1.6H4.5v0.9
				h0.8c1.8,0,2.8,0.6,2.8,1.7c0,0.5-0.2,0.9-0.6,1.2c-0.4,0.3-1,0.5-1.7,0.5c-0.9,0-1.7-0.2-2.4-0.7v1.2c0.6,0.3,1.4,0.5,2.3,0.5
				c1.1,0,2-0.2,2.6-0.7c0.7-0.5,1-1.2,1-2c0-0.6-0.2-1.1-0.6-1.5C8.4,10.6,7.8,10.4,7.1,10.3z M14.6,5.8c-1.1,0-2,0.4-2.6,1.2
				c-0.6,0.8-0.9,2-0.9,3.6c0,1.5,0.3,2.6,0.8,3.4c0.6,0.8,1.4,1.2,2.4,1.2c1.1,0,1.9-0.4,2.5-1.2c0.6-0.8,0.9-2,0.9-3.5
				C17.9,7.4,16.8,5.8,14.6,5.8z M14.5,14.3c-1.4,0-2.1-1.2-2.1-3.6c0-2.6,0.7-3.9,2.1-3.9c1.3,0,2,1.3,2,3.8
				C16.6,13,15.9,14.3,14.5,14.3z"/>
		</g>
	</g>
</g>
</svg>
