<svg xmlns="http://www.w3.org/2000/svg" xmlns:xlink="http://www.w3.org/1999/xlink" preserveAspectRatio="xMidYMid" width="14" height="16" viewBox="0 0 14 16">
  <path d="M7.969,11.000 C10.490,11.000 12.467,12.662 12.908,15.000 L1.092,15.000 C1.533,12.662 3.510,11.000 6.031,11.000 L7.969,11.000 M7.969,10.000 L6.031,10.000 C2.700,10.000 -0.000,12.518 -0.000,16.000 L14.000,16.000 C14.000,12.518 11.300,10.000 7.969,10.000 L7.969,10.000 ZM7.003,1.000 C9.729,1.000 10.000,2.081 10.000,4.736 C10.000,5.874 9.121,8.000 7.003,8.000 C4.881,8.000 4.000,5.874 4.000,4.736 C4.000,2.081 4.272,1.000 7.003,1.000 M7.003,-0.000 C3.276,-0.000 3.000,2.120 3.000,4.736 C3.000,6.523 4.351,9.000 7.003,9.000 C9.654,9.000 11.000,6.523 11.000,4.736 C11.000,2.120 10.729,-0.000 7.003,-0.000 L7.003,-0.000 Z" fill="#000" fill-rule="evenodd"/>
</svg>
