<svg version="1.1" id="Icon" xmlns="http://www.w3.org/2000/svg" xmlns:xlink="http://www.w3.org/1999/xlink" x="0px" y="0px"
	 viewBox="0 0 1000 1000" enable-background="new 0 0 1000 1000" xml:space="preserve">
<path fill="#0078d7" d="M781.3,750h-415l-41.7-125h529.7L1000,187.5H178.8l-41.7-125H0V125h92l211.4,634.1c-31.6,15.1-53.4,47.4-53.4,84.6
	c0,51.7,42.1,93.8,93.8,93.8s93.8-42.1,93.8-93.8c0-11-1.9-21.5-5.4-31.3h260.7c-3.5,9.8-5.4,20.3-5.4,31.3
	c0,51.7,42.1,93.8,93.8,93.8s93.8-42.1,93.8-93.8S832.9,750,781.3,750z M913.3,250L809.2,562.5H303.8L199.6,250H913.3z M375,843.8
	c0,17.2-14,31.3-31.3,31.3s-31.3-14-31.3-31.3s14-31.3,31.3-31.3S375,826.5,375,843.8z M781.3,875c-17.2,0-31.3-14-31.3-31.3
	s14-31.3,31.3-31.3s31.3,14,31.3,31.3S798.5,875,781.3,875z"/>
</svg>