<?xml version="1.0" encoding="UTF-8" standalone="no"?>
<svg width="21px" height="20px" viewBox="0 0 21 20" version="1.1" xmlns="http://www.w3.org/2000/svg" xmlns:xlink="http://www.w3.org/1999/xlink" xmlns:sketch="http://www.bohemiancoding.com/sketch/ns">
    <!-- Generator: Sketch 3.3.2 (12043) - http://www.bohemiancoding.com/sketch -->
    <title>Shape</title>
    <desc>Created with Sketch.</desc>
    <defs></defs>
    <g id="Page-1" stroke="none" stroke-width="1" fill="none" fill-rule="evenodd" sketch:type="MSPage">
        <g id="footer-sprite-ms-2" sketch:type="MSLayerGroup" transform="translate(0.000000, -181.000000)" fill="#FFFFFF">
            <path d="M10.5,181 C5,181 0.5,185.5 0.5,191 C0.5,196.5 5,201 10.5,201 C16,201 20.5,196.5 20.5,191 C20.5,185.5 16,181 10.5,181 L10.5,181 Z M8.4,195 C7.5,195.8 6.3,196.2 5,196.2 L4.6,196.2 L4.5,196.2 C4.2,196.2 3.9,196 3.7,195.7 C3.4,195.2 3.1,194.7 2.8,194.1 C2.7,194 2.7,193.8 2.7,193.7 C2.7,193.5 2.8,193.3 2.9,193.1 C3.3,192.6 3.6,192 3.8,191.4 C4.2,190.2 5.4,189.3 6.7,189.3 L6.7,189.3 C7.1,189.3 7.4,189.6 7.4,190 L7.4,190.2 C7.4,190.4 7.3,190.5 7.3,190.7 C7.3,191.3 7.6,191.9 8.1,192.2 C8.6,192.5 9,193.1 9,193.7 C9.1,194.2 8.8,194.7 8.4,195 L8.4,195 Z M13.9,198.5 C13.8,198.5 13.7,198.6 13.6,198.6 C13.1,198.6 12.7,198.2 12.7,197.7 C12.7,197.6 12.7,197.4 12.8,197.3 C12.9,197 13,196.6 13,196.2 C13,195.5 12.8,194.9 12.4,194.5 C12,194 11.8,193.4 11.8,192.7 C11.8,192 12.1,191.3 12.5,190.8 C12.8,190.5 13,190.1 13,189.6 C13,188.9 12.6,188.3 12,188 C11.5,187.8 10.9,187.6 10.3,187.6 C9.8,187.6 9.3,187.7 8.9,187.8 C8.8,187.8 8.7,187.9 8.6,187.9 C8.1,187.9 7.7,187.5 7.7,187 C7.7,186.6 7.9,186.3 8.2,186.1 C8.5,185.9 8.7,185.6 8.7,185.3 C8.7,184.9 8.4,184.5 8,184.4 C7.7,184.3 7.5,184.1 7.5,183.7 C7.5,183.4 7.7,183.1 8,183 C8.8,182.7 9.7,182.6 10.6,182.6 C13.2,182.6 15.5,183.8 17,185.6 C17.1,185.7 17.1,185.9 17.1,186 C17.1,186.4 16.8,186.7 16.4,186.7 L16.3,186.7 L15.7,186.7 C15.4,186.7 15.2,186.7 14.9,186.8 C14.6,186.9 14.3,187.1 14.3,187.5 C14.3,187.9 14.6,188.2 15,188.2 L15.2,188.2 C15.5,188.1 15.9,188.1 16.3,188.1 C16.8,188.1 17.2,188.2 17.7,188.3 C18.3,188.5 18.7,189 18.8,189.7 C18.9,190.1 18.9,190.5 18.9,191 C18.8,194.4 16.8,197.2 13.9,198.5 L13.9,198.5 Z" id="Shape" sketch:type="MSShapeGroup"></path>
        </g>
    </g>
</svg>