<svg xmlns="http://www.w3.org/2000/svg" xmlns:xlink="http://www.w3.org/1999/xlink" preserveAspectRatio="xMidYMid" width="25" height="25" viewBox="0 0 25 25">
  <path d="M15.767,11.530 L14.107,13.859 C13.870,14.182 13.719,14.679 13.719,15.024 L13.719,15.671 L11.519,15.671 L11.519,14.916 C11.519,14.031 11.734,13.470 12.252,12.780 L13.935,10.515 C14.323,9.998 14.603,9.480 14.603,8.877 C14.603,7.669 13.740,6.719 12.489,6.719 C11.152,6.719 10.397,7.734 10.397,8.898 L8.197,8.898 C8.197,6.461 10.052,4.757 12.489,4.757 C14.840,4.757 16.803,6.331 16.803,8.877 C16.803,9.912 16.351,10.731 15.767,11.530 ZM11.389,20.243 L11.389,17.892 L13.827,17.892 L13.827,20.243 L11.389,20.243 ZM12.500,1.500 C18.565,1.500 23.500,6.435 23.500,12.500 C23.500,18.565 18.565,23.500 12.500,23.500 C6.435,23.500 1.500,18.565 1.500,12.500 C1.500,6.435 6.435,1.500 12.500,1.500 M12.500,-0.000 C5.596,-0.000 0.000,5.596 0.000,12.500 C0.000,19.404 5.596,25.000 12.500,25.000 C19.404,25.000 25.000,19.404 25.000,12.500 C25.000,5.596 19.404,-0.000 12.500,-0.000 L12.500,-0.000 Z" fill="#3a9cd7" fill-rule="evenodd" />
</svg>
