<?xml version="1.0" encoding="utf-8"?>
<!-- Generator: Adobe Illustrator 18.0.0, SVG Export Plug-In . SVG Version: 6.00 Build 0)  -->
<!DOCTYPE svg PUBLIC "-//W3C//DTD SVG 1.1//EN" "http://www.w3.org/Graphics/SVG/1.1/DTD/svg11.dtd">
<svg version="1.1" id="promotion_1_" xmlns="http://www.w3.org/2000/svg" xmlns:xlink="http://www.w3.org/1999/xlink" x="0px"
	 y="0px" viewBox="0 0 24 24" enable-background="new 0 0 24 24" xml:space="preserve">
<g id="promotion">
	<g>
		<path fill-rule="evenodd" clip-rule="evenodd" fill="#FDB813" d="M17,7c0-2.8-1.8-5-4-5c-0.5,0-1,0.1-1.5,0.4C11,2.1,10.5,2,10,2
			C7.8,2,6,4.2,6,7H4v14h15V7H17z M6.9,7c0-2.3,1.4-4.1,3.1-4.1c0.2,0,0.4,0,0.6,0.1C9.6,3.9,9,5.4,9,7H6.9z M9.9,7
			c0-1.5,0.7-2.9,1.6-3.6c1,0.7,1.6,2,1.6,3.6H9.9z M14,7c0-1.6-0.6-3.1-1.6-4c0.2-0.1,0.4-0.1,0.6-0.1c1.7,0,3.1,1.8,3.1,4.1H14z"
			/>
	</g>
</g>
</svg>
