<?xml version="1.0" encoding="utf-8"?>
<!-- Generator: Adobe Illustrator 18.0.0, SVG Export Plug-In . SVG Version: 6.00 Build 0)  -->
<!DOCTYPE svg PUBLIC "-//W3C//DTD SVG 1.1//EN" "http://www.w3.org/Graphics/SVG/1.1/DTD/svg11.dtd">
<svg version="1.1" id="promise_x5F_03_1_" xmlns="http://www.w3.org/2000/svg" xmlns:xlink="http://www.w3.org/1999/xlink" x="0px"
	 y="0px" viewBox="0 0 21 21" enable-background="new 0 0 21 21" xml:space="preserve">
<g id="Shape_1_copy">
	<g>
		<rect fill-rule="evenodd" clip-rule="evenodd" fill="#3A9CD7" width="21" height="21"/>
	</g>
</g>
<g id="Shape_5">
	<g>
		<circle fill-rule="evenodd" clip-rule="evenodd" fill="#FFFFFF" cx="10.5" cy="10.5" r="7.5"/>
	</g>
</g>
<g id="Shape_6">
	<g>
		<path fill-rule="evenodd" clip-rule="evenodd" fill="#FDB813" d="M9.9,15h1.4v-1.4H9.9V15z M10.5,6C9.1,6,8,7,8,8.4h1.3
			c0-0.7,0.4-1.3,1.2-1.3c0.7,0,1.2,0.6,1.2,1.3c0,0.3-0.2,0.7-0.4,1l-1,1.3c-0.3,0.4-0.4,0.7-0.4,1.2v0.4h1.3V12
			c0-0.2,0.1-0.5,0.2-0.7l1-1.4C12.7,9.5,13,9,13,8.4C13,6.9,11.9,6,10.5,6z"/>
	</g>
</g>
</svg>
