<svg version="1.1" id="Icon" xmlns="http://www.w3.org/2000/svg" xmlns:xlink="http://www.w3.org/1999/xlink" x="0px" y="0px"
	 viewBox="0 0 1000 1000" enable-background="new 0 0 1000 1000" xml:space="preserve">
<path d="M973,209.9c-17.3-40.9-42.1-77.7-73.7-109.3S831,44.3,790.1,27C747.7,9.1,702.6,0,656.3,0c-46.4,0-91.4,9.1-133.8,27
	c-40.9,17.3-77.7,42.1-109.3,73.7c-31.6,31.6-56.3,68.3-73.7,109.3c-17.9,42.4-27,87.4-27,133.8c0,46.4,9.1,91.4,27,133.8
	c13.2,31.3,30.9,60.2,52.6,86.2L9.2,946.7c-12.2,12.2-12.2,32,0,44.2c6.1,6.1,14.1,9.2,22.1,9.2s16-3.1,22.1-9.2l382.9-382.9
	c26,21.7,54.8,39.3,86.2,52.6c42.4,17.9,87.4,27,133.8,27c46.4,0,91.4-9.1,133.8-27c40.9-17.3,77.7-42.1,109.3-73.7
	c31.6-31.6,56.3-68.3,73.7-109.3c17.9-42.4,27-87.4,27-133.8C1000,297.4,990.9,252.3,973,209.9z M656.3,625
	C501.2,625,375,498.8,375,343.8S501.2,62.5,656.3,62.5s281.3,126.2,281.3,281.3S811.3,625,656.3,625z"/>
</svg>
