<svg xmlns="http://www.w3.org/2000/svg" xmlns:xlink="http://www.w3.org/1999/xlink" preserveAspectRatio="xMidYMid" width="56" height="39" viewBox="0 0 56 39">
  <g>
    <path d="M53.670,39.000 L2.330,39.000 C1.041,39.000 -0.003,37.941 -0.003,36.635 L-0.003,2.350 C-0.003,1.044 1.041,-0.015 2.330,-0.015 L53.670,-0.015 C54.959,-0.015 56.003,1.044 56.003,2.350 L56.003,36.635 C56.003,37.941 54.959,39.000 53.670,39.000 ZM51.336,3.532 L3.497,3.532 L3.497,35.453 L51.336,35.453 L51.336,3.532 ZM53.670,18.310 C53.025,18.310 52.503,18.840 52.503,19.492 C52.503,20.145 53.025,20.675 53.670,20.675 C54.314,20.675 54.836,20.145 54.836,19.492 C54.836,18.840 54.314,18.310 53.670,18.310 Z" fill="#0075b2"/>
    <path d="M30.083,20.850 C29.488,20.729 29.037,20.515 28.643,20.263 L29.979,15.478 C31.803,16.593 32.602,16.568 35.211,15.912 L33.917,20.435 C33.266,20.737 31.878,21.215 30.083,20.850 ZM23.982,18.515 C23.982,18.515 23.081,18.737 22.255,18.955 L23.540,14.386 C23.540,14.386 26.050,12.926 28.758,14.692 L27.429,19.360 C26.669,18.803 25.771,18.352 23.982,18.515 ZM25.751,20.132 C26.198,20.307 26.599,20.565 27.008,20.841 L25.690,25.470 C23.979,24.460 22.807,24.284 20.534,25.071 L21.800,20.572 C22.386,20.296 24.232,19.535 25.751,20.132 ZM32.558,22.197 C32.899,22.135 33.190,22.082 33.459,22.034 L32.205,26.417 C32.205,26.417 29.425,27.879 26.965,26.272 L28.259,21.637 C29.261,22.188 30.521,22.570 32.558,22.197 Z" fill="#0075b2"/>
  </g>
</svg>
