<svg xmlns="http://www.w3.org/2000/svg" xmlns:xlink="http://www.w3.org/1999/xlink" preserveAspectRatio="xMidYMid" width="25" height="25" viewBox="0 0 25 25">
  <path d="M15.118,20.080 C15.117,20.194 15.094,20.301 15.050,20.402 C14.989,20.539 14.897,20.651 14.771,20.738 C14.646,20.824 14.503,20.871 14.342,20.876 L13.598,20.893 C13.307,20.896 13.030,20.869 12.765,20.813 C12.501,20.756 12.245,20.674 11.998,20.565 C11.600,20.390 11.236,20.151 10.906,19.847 C10.576,19.544 10.288,19.190 10.042,18.787 C9.797,18.385 9.595,17.940 9.438,17.453 C9.282,16.967 9.174,16.454 9.116,15.916 C9.066,15.610 9.021,15.265 8.982,14.882 C8.950,14.557 8.921,14.172 8.893,13.726 C8.866,13.280 8.854,12.793 8.857,12.265 C8.855,11.735 8.870,11.279 8.902,10.897 C8.934,10.516 8.966,10.201 8.998,9.953 C9.038,9.665 9.084,9.424 9.137,9.229 C9.185,8.846 9.260,8.476 9.359,8.119 C9.459,7.762 9.582,7.419 9.727,7.089 C9.916,6.660 10.141,6.265 10.403,5.906 C10.665,5.546 10.961,5.234 11.290,4.970 C11.619,4.705 11.980,4.498 12.373,4.349 C12.766,4.200 13.188,4.124 13.637,4.120 L14.371,4.107 C14.485,4.108 14.590,4.130 14.686,4.172 C14.823,4.233 14.934,4.326 15.017,4.453 C15.100,4.580 15.143,4.722 15.144,4.881 L15.142,8.065 C15.141,8.179 15.120,8.284 15.077,8.380 C15.015,8.522 14.920,8.637 14.794,8.726 C14.667,8.815 14.525,8.860 14.366,8.861 L12.915,8.885 C12.723,8.888 12.553,8.942 12.406,9.046 C12.259,9.151 12.149,9.285 12.077,9.450 C12.022,9.573 11.994,9.700 11.991,9.830 L11.981,15.228 C11.983,15.436 12.034,15.612 12.135,15.754 C12.236,15.897 12.366,16.003 12.526,16.074 C12.636,16.122 12.759,16.146 12.895,16.146 L14.347,16.122 C14.461,16.123 14.566,16.145 14.662,16.187 C14.795,16.246 14.904,16.339 14.989,16.466 C15.075,16.594 15.118,16.737 15.119,16.896 L15.118,20.080 ZM12.500,1.500 C18.565,1.500 23.500,6.435 23.500,12.500 C23.500,18.565 18.565,23.500 12.500,23.500 C6.435,23.500 1.500,18.565 1.500,12.500 C1.500,6.435 6.435,1.500 12.500,1.500 M12.500,-0.000 C5.596,-0.000 -0.000,5.596 -0.000,12.500 C-0.000,19.404 5.596,25.000 12.500,25.000 C19.404,25.000 25.000,19.404 25.000,12.500 C25.000,5.596 19.404,-0.000 12.500,-0.000 L12.500,-0.000 Z" fill="#3a9cd7" fill-rule="evenodd"/>
</svg>
