<?xml version="1.0" encoding="utf-8"?>
<!-- Generator: Adobe Illustrator 18.0.0, SVG Export Plug-In . SVG Version: 6.00 Build 0)  -->
<!DOCTYPE svg PUBLIC "-//W3C//DTD SVG 1.1//EN" "http://www.w3.org/Graphics/SVG/1.1/DTD/svg11.dtd">
<svg version="1.1" id="Layer_1" xmlns="http://www.w3.org/2000/svg" xmlns:xlink="http://www.w3.org/1999/xlink" width="170px" height="170px" x="0px" y="0px"
	 viewBox="0 0 170 170" enable-background="new 0 0 170 170" xml:space="preserve">
<g>
	<g>
		<path fill="#4D4C4D" d="M112.1,418.3l1.2,6c0.3,1.3,0.5,2.7,0.7,3.9h0.1c0.2-1.3,0.5-2.7,0.8-3.9l1.4-6.1h1.5l1.4,5.9
			c0.3,1.4,0.6,2.7,0.8,4.1h0.1c0.2-1.3,0.4-2.6,0.7-4l1.2-6h2l-3.1,12.3h-1.6l-1.4-6c-0.3-1.2-0.5-2.3-0.7-3.7H117
			c-0.2,1.5-0.4,2.6-0.7,3.8l-1.5,5.9h-1.7l-3-12.3H112.1z"/>
		<path fill="#4D4C4D" d="M128.4,418.3l1.2,6c0.3,1.3,0.5,2.7,0.7,3.9h0.1c0.2-1.3,0.5-2.7,0.8-3.9l1.4-6.1h1.5l1.4,5.9
			c0.3,1.4,0.6,2.7,0.8,4.1h0.1c0.2-1.3,0.4-2.6,0.7-4l1.2-6h2l-3.1,12.3h-1.6l-1.4-6c-0.3-1.2-0.5-2.3-0.7-3.7h-0.1
			c-0.2,1.5-0.4,2.6-0.7,3.8l-1.5,5.9h-1.7l-3-12.3H128.4z"/>
		<path fill="#4D4C4D" d="M144.6,418.3l1.2,6c0.3,1.3,0.5,2.7,0.7,3.9h0.1c0.2-1.3,0.5-2.7,0.8-3.9l1.4-6.1h1.5l1.4,5.9
			c0.3,1.4,0.6,2.7,0.8,4.1h0.1c0.2-1.3,0.4-2.6,0.7-4l1.2-6h2l-3.1,12.3h-1.6l-1.4-6c-0.3-1.2-0.5-2.3-0.7-3.7h-0.1
			c-0.2,1.5-0.4,2.6-0.7,3.8l-1.5,5.9h-1.7l-3-12.3H144.6z"/>
		<path fill="#4D4C4D" d="M158.1,429.4c0-0.9,0.6-1.5,1.3-1.5c0.8,0,1.3,0.6,1.3,1.5c0,0.9-0.5,1.5-1.3,1.5
			C158.6,430.9,158.1,430.3,158.1,429.4z"/>
		<path fill="#4D4C4D" d="M164.4,413h2v17.6h-2V413z"/>
		<path fill="#4D4C4D" d="M178.1,424.5c0,4.8-2.2,6.4-4.1,6.4c-2.2,0-4-2-4-6.3c0-4.5,2-6.4,4.1-6.4
			C176.4,418.2,178.1,420.2,178.1,424.5z M172,424.5c0,2,0.4,4.8,2.1,4.8c1.7,0,2-2.9,2-4.8c0-1.9-0.4-4.8-2.1-4.8
			C172.3,419.7,172,422.6,172,424.5z"/>
		<path fill="#4D4C4D" d="M189.1,429.1c0,3.2-0.4,4.5-1.2,5.4c-0.7,0.8-1.9,1.3-3.3,1.3c-1,0-2.1-0.3-2.7-0.6l0.5-1.5
			c0.5,0.3,1.3,0.5,2.3,0.5c1.6,0,2.5-1,2.5-3.8v-1.2h-0.1c-0.4,1-1.3,1.5-2.4,1.5c-2.2,0-3.6-2.5-3.6-6.1c0-4.5,2.1-6.4,3.9-6.4
			c1.3,0,1.9,0.9,2.3,1.6h0.1l0.1-1.4h1.7c0,0.8-0.1,1.9-0.1,3.9V429.1z M187.1,422.6c0-0.3,0-0.6-0.1-0.9c-0.2-0.8-0.7-1.9-1.8-1.9
			c-1.4,0-2.2,1.9-2.2,4.6c0,3.1,1,4.6,2.2,4.6c0.6,0,1.4-0.3,1.8-1.8c0.1-0.4,0.1-0.8,0.1-1.1V422.6z"/>
		<path fill="#4D4C4D" d="M200.6,424.5c0,4.8-2.2,6.4-4.1,6.4c-2.2,0-4-2-4-6.3c0-4.5,2-6.4,4.1-6.4
			C198.9,418.2,200.6,420.2,200.6,424.5z M194.5,424.5c0,2,0.4,4.8,2.1,4.8c1.7,0,2-2.9,2-4.8c0-1.9-0.4-4.8-2.1-4.8
			C194.8,419.7,194.5,422.6,194.5,424.5z"/>
		<path fill="#4D4C4D" d="M205.5,424.7c0,3.8,1.5,4.6,2.9,4.6c0.9,0,1.6-0.2,2-0.5l0.3,1.4c-0.7,0.4-1.7,0.6-2.7,0.6
			c-3,0-4.5-2.4-4.5-6.2c0-4,1.7-6.5,4.2-6.5c2.5,0,3.5,2.7,3.5,5.4c0,0.5,0,0.8-0.1,1.1H205.5z M209.4,423.2c0-2.4-0.9-3.5-1.8-3.5
			c-1.3,0-1.9,1.9-2,3.5H209.4z"/>
		<path fill="#4D4C4D" d="M214.6,422.2c0-1.9-0.1-3-0.1-3.9h1.7l0.1,1.6h0.1c0.7-1.3,1.7-1.8,2.6-1.8c2.2,0,3.6,2.3,3.6,6.3
			c0,4.6-1.9,6.4-3.8,6.4c-1.2,0-1.8-0.7-2.2-1.4h-0.1v6.1h-1.9V422.2z M216.5,426.2c0,0.4,0,0.7,0.1,1c0.4,1.8,1.3,2.1,1.8,2.1
			c1.6,0,2.2-2.2,2.2-4.7c0-2.5-0.6-4.7-2.2-4.7c-0.9,0-1.7,1.1-1.8,2.2c-0.1,0.3-0.1,0.6-0.1,0.9V426.2z"/>
		<path fill="#4D4C4D" d="M225.7,428.6c0.4,0.3,1.2,0.6,2,0.6c1.1,0,1.8-0.7,1.8-1.8c0-0.9-0.3-1.6-1.6-2.4c-1.6-1-2.5-2.1-2.5-3.5
			c0-2,1.5-3.4,3.4-3.4c1,0,1.7,0.3,2.2,0.6l-0.5,1.5c-0.5-0.3-1-0.6-1.7-0.6c-1,0-1.6,0.8-1.6,1.6c0,0.8,0.3,1.3,1.5,2.1
			c1.4,0.9,2.6,2,2.6,3.7c0,2.5-1.7,3.7-3.7,3.7c-0.9,0-1.9-0.3-2.4-0.7L225.7,428.6z"/>
		<path fill="#4D4C4D" d="M234.3,429.4c0-0.9,0.6-1.5,1.3-1.5c0.8,0,1.3,0.6,1.3,1.5c0,0.9-0.5,1.5-1.3,1.5
			C234.8,430.9,234.3,430.3,234.3,429.4z"/>
		<path fill="#4D4C4D" d="M246.6,430.4c-0.4,0.3-1.2,0.5-2,0.5c-2.7,0-4.5-2.2-4.5-6.2c0-3.5,1.8-6.4,4.9-6.4c0.7,0,1.4,0.2,1.7,0.4
			l-0.4,1.6c-0.3-0.1-0.8-0.3-1.4-0.3c-2,0-2.9,2.3-2.9,4.8c0,2.9,1.1,4.6,2.9,4.6c0.5,0,1-0.1,1.4-0.3L246.6,430.4z"/>
		<path fill="#4D4C4D" d="M257,424.5c0,4.8-2.2,6.4-4.1,6.4c-2.2,0-4-2-4-6.3c0-4.5,2-6.4,4.1-6.4C255.3,418.2,257,420.2,257,424.5z
			 M250.9,424.5c0,2,0.4,4.8,2.1,4.8c1.7,0,2-2.9,2-4.8c0-1.9-0.4-4.8-2.1-4.8C251.2,419.7,250.9,422.6,250.9,424.5z"/>
		<path fill="#4D4C4D" d="M260.5,421.5c0-1.5-0.1-2.2-0.1-3.2h1.7l0.1,1.5h0.1c0.5-1,1.5-1.7,2.8-1.7c1.1,0,2.1,0.5,2.6,1.9h0.1
			c0.3-0.6,0.8-1.1,1.2-1.4c0.5-0.3,1.1-0.5,1.7-0.5c1.7,0,3,1.2,3,4.4v8.2h-1.9V423c0-1.6-0.2-3.2-1.7-3.2c-0.8,0-1.5,0.7-1.8,1.9
			c-0.1,0.3-0.1,0.7-0.1,1.1v7.9H266v-8.1c0-1.4-0.2-2.8-1.7-2.8c-0.8,0-1.6,0.7-1.8,2c-0.1,0.3-0.1,0.7-0.1,1v7.8h-1.9V421.5z"/>
	</g>
	<g>
		<path fill="#888888" d="M-76.8,406.9v-1.1l1.2-1.6c1.7-2.4,3.7-5.1,3.7-7.7c0-1.6-0.7-2.6-2-2.6c-1,0-1.7,0.5-2.1,0.8l-0.4-1.3
			c0.5-0.4,1.5-1,2.8-1c2.4,0,3.4,1.8,3.4,3.9c0,2.7-1.7,5.3-3.5,7.7l-0.9,1.3v0h4.8v1.5H-76.8z"/>
		<path fill="#888888" d="M-60.1,399.8c0,5.2-1.6,7.3-3.7,7.3c-2.2,0-3.6-2.6-3.6-7.3c0-4.8,1.4-7.3,3.8-7.3
			C-61.3,392.5-60.1,395.2-60.1,399.8z M-65.7,399.8c0,3.5,0.6,5.9,2,5.9c1.4,0,1.9-2.4,1.9-5.9c0-3.3-0.6-5.9-1.9-5.9
			C-65.1,393.9-65.7,396.3-65.7,399.8z"/>
		<path fill="#888888" d="M-50.6,399.8c0,5.2-1.7,7.3-3.7,7.3c-2.2,0-3.6-2.6-3.6-7.3c0-4.8,1.4-7.3,3.8-7.3
			C-51.8,392.5-50.6,395.2-50.6,399.8z M-56.1,399.8c0,3.5,0.6,5.9,2,5.9c1.4,0,1.9-2.4,1.9-5.9c0-3.3-0.5-5.9-1.9-5.9
			C-55.5,393.9-56.1,396.3-56.1,399.8z"/>
		<path fill="#888888" d="M-48.5,409.7c0.5-1.3,1.1-3.6,1.3-5.1l1.9-0.2c-0.5,1.8-1.4,4.2-2,5.2L-48.5,409.7z"/>
		<path fill="#888888" d="M-35.6,399.8c0,5.2-1.7,7.3-3.7,7.3c-2.2,0-3.6-2.6-3.6-7.3c0-4.8,1.4-7.3,3.8-7.3
			C-36.8,392.5-35.6,395.2-35.6,399.8z M-41.2,399.8c0,3.5,0.6,5.9,2,5.9c1.4,0,1.9-2.4,1.9-5.9c0-3.3-0.5-5.9-1.9-5.9
			C-40.6,393.9-41.2,396.3-41.2,399.8z"/>
		<path fill="#888888" d="M-26,399.8c0,5.2-1.6,7.3-3.7,7.3c-2.2,0-3.6-2.6-3.6-7.3c0-4.8,1.4-7.3,3.8-7.3
			C-27.3,392.5-26,395.2-26,399.8z M-31.6,399.8c0,3.5,0.6,5.9,2,5.9c1.4,0,1.9-2.4,1.9-5.9c0-3.3-0.6-5.9-1.9-5.9
			C-31,393.9-31.6,396.3-31.6,399.8z"/>
		<path fill="#888888" d="M-16.5,399.8c0,5.2-1.6,7.3-3.7,7.3c-2.2,0-3.6-2.6-3.6-7.3c0-4.8,1.4-7.3,3.8-7.3
			C-17.7,392.5-16.5,395.2-16.5,399.8z M-22.1,399.8c0,3.5,0.6,5.9,2,5.9c1.4,0,1.9-2.4,1.9-5.9c0-3.3-0.6-5.9-1.9-5.9
			C-21.5,393.9-22.1,396.3-22.1,399.8z"/>
		<path fill="#888888" d="M-7.6,395.2v5.2h5.1v1.2h-5.1v5.3h-1.3v-5.3h-5v-1.2h5v-5.2H-7.6z"/>
		<path fill="#888888" d="M5.1,391.7h1.7v5.9h0c0.6-1.1,1.3-1.4,2.3-1.4c1.7,0,2.9,1.9,2.9,5.4c0,3.8-1.6,5.6-3.2,5.6
			c-1.1,0-1.7-0.7-2.1-1.6H6.6l-0.1,1.4H5.1c0-0.6,0.1-1.8,0.1-2.6V391.7z M6.8,403.2c0,0.2,0,0.5,0.1,0.7c0.4,1.6,1.1,1.8,1.6,1.8
			c1.4,0,1.8-1.8,1.8-4.1c0-2.1-0.5-4-1.9-4c-0.8,0-1.4,1-1.6,1.9c0,0.2,0,0.5,0,0.7V403.2z"/>
		<path fill="#888888" d="M15,399c0-0.9-0.1-2-0.1-2.8h1.5l0.1,1.7h0c0.4-1,1.3-1.8,2.2-1.8c0.1,0,0.2,0,0.4,0v1.7
			c-0.1,0-0.2,0-0.4,0c-1.1,0-1.9,1-2,2.2c0,0.3-0.1,0.6-0.1,1v5.9H15V399z"/>
		<path fill="#888888" d="M27.1,404.5c0,0.8,0,1.7,0.1,2.4h-1.5l-0.1-1.1h-0.1c-0.5,0.8-1.2,1.3-2.1,1.3c-1.4,0-2.5-1.2-2.5-3
			c0-2.7,2.1-3.9,4.5-3.9v-0.3c0-1.4-0.4-2.4-1.7-2.4c-0.7,0-1.3,0.2-1.8,0.5l-0.4-1.2c0.5-0.3,1.4-0.7,2.5-0.7c2.1,0,3,1.4,3,3.8
			V404.5z M25.4,401.4c-0.9,0-2.9,0.2-2.9,2.5c0,1.4,0.7,1.9,1.3,1.9c0.7,0,1.4-0.5,1.6-1.6c0-0.2,0.1-0.4,0.1-0.6V401.4z"/>
		<path fill="#888888" d="M30.6,399c0-1.3-0.1-1.9-0.1-2.8H32l0.1,1.3h0c0.5-0.9,1.3-1.5,2.4-1.5c1.5,0,2.6,1.1,2.6,3.7v7.2h-1.7
			v-6.8c0-1.3-0.2-2.5-1.5-2.5c-0.7,0-1.4,0.6-1.6,1.7c-0.1,0.3-0.1,0.6-0.1,1v6.7h-1.7V399z"/>
		<path fill="#888888" d="M47,391.7v12.7c0,0.7,0.1,1.9,0.1,2.6h-1.5l-0.1-1.3h-0.1c-0.4,0.7-1.1,1.5-2.2,1.5
			c-1.8,0-3.1-1.9-3.1-5.5c0-3.8,1.6-5.5,3.2-5.5c0.8,0,1.5,0.4,2,1.3h0v-5.7H47z M45.3,400.4c0-0.2,0-0.5,0-0.7
			c-0.1-1.1-0.8-2.1-1.6-2.1c-1.4,0-1.9,2-1.9,4.1c0,2.2,0.6,4,1.8,4c0.5,0,1.3-0.3,1.6-1.8c0-0.2,0.1-0.4,0.1-0.7V400.4z"/>
		<path fill="#888888" d="M55,391.7h1.7v15.2H55V391.7z"/>
		<path fill="#888888" d="M66.9,401.6c0,4.1-1.9,5.5-3.5,5.5c-1.9,0-3.5-1.7-3.5-5.5c0-3.9,1.7-5.5,3.6-5.5
			C65.3,396.1,66.9,397.9,66.9,401.6z M61.6,401.6c0,1.8,0.3,4.2,1.8,4.2c1.5,0,1.8-2.5,1.8-4.2c0-1.6-0.3-4.1-1.8-4.1
			C61.8,397.5,61.6,400,61.6,401.6z"/>
		<path fill="#888888" d="M76.3,405.6c0,2.8-0.4,3.9-1.1,4.6c-0.6,0.7-1.6,1.1-2.8,1.1c-0.9,0-1.8-0.2-2.3-0.5l0.4-1.3
			c0.4,0.2,1.1,0.5,2,0.5c1.3,0,2.2-0.8,2.2-3.3v-1.1h0c-0.4,0.8-1.1,1.3-2,1.3c-1.9,0-3.1-2.1-3.1-5.3c0-3.9,1.8-5.5,3.4-5.5
			c1.1,0,1.6,0.7,2,1.3h0l0.1-1.2h1.5c0,0.7-0.1,1.7-0.1,3.3V405.6z M74.6,400c0-0.3,0-0.6-0.1-0.8c-0.2-0.7-0.6-1.6-1.5-1.6
			c-1.2,0-1.9,1.7-1.9,4c0,2.7,0.9,3.9,1.9,3.9c0.5,0,1.2-0.2,1.5-1.5c0.1-0.3,0.1-0.7,0.1-1V400z"/>
		<path fill="#888888" d="M86.3,401.6c0,4.1-1.9,5.5-3.5,5.5c-1.9,0-3.5-1.7-3.5-5.5c0-3.9,1.7-5.5,3.6-5.5
			C84.7,396.1,86.3,397.9,86.3,401.6z M81,401.6c0,1.8,0.3,4.2,1.8,4.2c1.5,0,1.8-2.5,1.8-4.2c0-1.6-0.3-4.1-1.8-4.1
			C81.2,397.5,81,400,81,401.6z"/>
		<path fill="#888888" d="M89,405.2c0.4,0.2,1,0.5,1.7,0.5c0.9,0,1.6-0.6,1.6-1.5c0-0.8-0.3-1.4-1.4-2.1c-1.4-0.9-2.1-1.8-2.1-3
			c0-1.7,1.3-2.9,2.9-2.9c0.8,0,1.5,0.3,1.9,0.5l-0.4,1.3c-0.4-0.3-0.9-0.5-1.4-0.5c-0.9,0-1.4,0.7-1.4,1.4c0,0.7,0.3,1.1,1.3,1.8
			c1.2,0.8,2.2,1.8,2.2,3.2c0,2.1-1.5,3.2-3.2,3.2c-0.8,0-1.6-0.2-2.1-0.6L89,405.2z"/>
		<path fill="#888888" d="M103.1,393.5c0,0.7-0.4,1.1-1,1.1c-0.5,0-1-0.4-1-1.1c0-0.7,0.4-1.1,1-1.1
			C102.7,392.4,103.1,392.9,103.1,393.5z M101.3,406.9v-10.6h1.7v10.6H101.3z"/>
		<path fill="#888888" d="M106.4,399c0-1.3-0.1-1.9-0.1-2.8h1.5l0.1,1.3h0c0.5-0.9,1.3-1.5,2.4-1.5c1.5,0,2.6,1.1,2.6,3.7v7.2h-1.7
			v-6.8c0-1.3-0.2-2.5-1.5-2.5c-0.7,0-1.4,0.6-1.6,1.7c-0.1,0.3-0.1,0.6-0.1,1v6.7h-1.7V399z"/>
		<path fill="#888888" d="M121.8,396.3l1.3,6c0.2,0.7,0.3,1.7,0.5,2.6h0.1c0.1-0.9,0.3-1.8,0.4-2.6l1.3-6h1.7l-2.8,10.6h-1.5
			l-2.8-10.6H121.8z"/>
		<path fill="#888888" d="M130.6,401.8c0,3.3,1.3,4,2.5,4c0.7,0,1.3-0.2,1.8-0.4l0.3,1.2c-0.6,0.3-1.5,0.5-2.4,0.5
			c-2.6,0-3.9-2.1-3.9-5.3c0-3.4,1.5-5.6,3.6-5.6c2.2,0,3,2.3,3,4.7c0,0.4,0,0.7,0,1H130.6z M134,400.5c0-2.1-0.8-3.1-1.6-3.1
			c-1.1,0-1.7,1.6-1.7,3.1H134z"/>
		<path fill="#888888" d="M143.7,406.7c-0.4,0.2-1,0.4-1.8,0.4c-2.3,0-3.9-1.9-3.9-5.4c0-3.1,1.5-5.5,4.2-5.5c0.6,0,1.2,0.2,1.5,0.3
			l-0.3,1.4c-0.2-0.1-0.7-0.3-1.2-0.3c-1.7,0-2.5,2-2.5,4.1c0,2.5,0.9,4,2.5,4c0.4,0,0.8-0.1,1.2-0.3L143.7,406.7z"/>
		<path fill="#888888" d="M148.7,393.8v2.5h2v1.3h-2v6.3c0,1.4,0.5,1.8,1.1,1.8c0.3,0,0.5,0,0.7-0.1l0.1,1.3
			c-0.3,0.1-0.7,0.2-1.3,0.2c-0.7,0-1.3-0.2-1.7-0.6c-0.4-0.5-0.6-1.2-0.6-2.7v-6.2h-1.3v-1.3h1.3v-1.8L148.7,393.8z"/>
		<path fill="#888888" d="M159.7,401.6c0,4.1-1.9,5.5-3.5,5.5c-1.9,0-3.5-1.7-3.5-5.5c0-3.9,1.7-5.5,3.6-5.5
			C158.1,396.1,159.7,397.9,159.7,401.6z M154.3,401.6c0,1.8,0.3,4.2,1.8,4.2c1.5,0,1.8-2.5,1.8-4.2c0-1.6-0.3-4.1-1.8-4.1
			C154.6,397.5,154.3,400,154.3,401.6z"/>
		<path fill="#888888" d="M162.6,399c0-0.9-0.1-2-0.1-2.8h1.5l0.1,1.7h0c0.4-1,1.3-1.8,2.2-1.8c0.1,0,0.2,0,0.4,0v1.7
			c-0.1,0-0.2,0-0.4,0c-1.1,0-1.9,1-2,2.2c0,0.3-0.1,0.6-0.1,1v5.9h-1.7V399z"/>
		<path fill="#888888" d="M174.1,406.9v-9.4h-1.3v-1.3h1.3v-0.6c0-1.2,0.2-2.3,0.9-3.2c0.6-0.7,1.5-0.9,2.1-0.9c0.6,0,1,0.1,1.3,0.3
			l-0.3,1.3c-0.2-0.1-0.5-0.2-0.9-0.2c-1.2,0-1.5,1.3-1.5,2.7v0.7h1.9v1.3h-1.9v9.4H174.1z"/>
		<path fill="#888888" d="M186.3,401.6c0,4.1-1.9,5.5-3.5,5.5c-1.9,0-3.5-1.7-3.5-5.5c0-3.9,1.7-5.5,3.6-5.5
			C184.8,396.1,186.3,397.9,186.3,401.6z M181,401.6c0,1.8,0.3,4.2,1.8,4.2c1.5,0,1.8-2.5,1.8-4.2c0-1.6-0.3-4.1-1.8-4.1
			C181.3,397.5,181,400,181,401.6z"/>
		<path fill="#888888" d="M189.3,399c0-0.9-0.1-2-0.1-2.8h1.5l0.1,1.7h0c0.4-1,1.3-1.8,2.2-1.8c0.1,0,0.2,0,0.4,0v1.7
			c-0.1,0-0.2,0-0.4,0c-1.1,0-1.9,1-2,2.2c0,0.3-0.1,0.6-0.1,1v5.9h-1.7V399z"/>
		<path fill="#888888" d="M195.9,399c0-1.3-0.1-1.9-0.1-2.8h1.5l0.1,1.3h0c0.5-0.9,1.3-1.5,2.4-1.5c1,0,1.8,0.5,2.2,1.6h0
			c0.3-0.5,0.7-1,1.1-1.2c0.4-0.3,0.9-0.4,1.5-0.4c1.4,0,2.6,1,2.6,3.8v7h-1.7v-6.7c0-1.4-0.2-2.7-1.5-2.7c-0.7,0-1.3,0.6-1.6,1.6
			c0,0.3-0.1,0.6-0.1,0.9v6.8h-1.7v-7c0-1.2-0.2-2.4-1.5-2.4c-0.7,0-1.4,0.6-1.6,1.7c0,0.3-0.1,0.6-0.1,0.9v6.8h-1.7V399z"/>
		<path fill="#888888" d="M216.2,404.5c0,0.8,0,1.7,0.1,2.4h-1.5l-0.1-1.1h-0.1c-0.5,0.8-1.2,1.3-2.1,1.3c-1.4,0-2.5-1.2-2.5-3
			c0-2.7,2.1-3.9,4.5-3.9v-0.3c0-1.4-0.4-2.4-1.7-2.4c-0.7,0-1.3,0.2-1.8,0.5l-0.4-1.2c0.5-0.3,1.4-0.7,2.5-0.7c2.1,0,3,1.4,3,3.8
			V404.5z M214.6,401.4c-0.9,0-2.9,0.2-2.9,2.5c0,1.4,0.7,1.9,1.3,1.9c0.7,0,1.4-0.5,1.6-1.6c0-0.2,0.1-0.4,0.1-0.6V401.4z"/>
		<path fill="#888888" d="M221.6,393.8v2.5h2v1.3h-2v6.3c0,1.4,0.5,1.8,1.1,1.8c0.3,0,0.5,0,0.7-0.1l0.1,1.3
			c-0.3,0.1-0.7,0.2-1.3,0.2c-0.7,0-1.3-0.2-1.7-0.6c-0.4-0.5-0.6-1.2-0.6-2.7v-6.2h-1.3v-1.3h1.3v-1.8L221.6,393.8z"/>
		<path fill="#888888" d="M236.4,404.5c0,0.8,0,1.7,0.1,2.4H235l-0.1-1.1h-0.1c-0.5,0.8-1.2,1.3-2.1,1.3c-1.4,0-2.5-1.2-2.5-3
			c0-2.7,2.1-3.9,4.5-3.9v-0.3c0-1.4-0.4-2.4-1.7-2.4c-0.7,0-1.3,0.2-1.8,0.5l-0.4-1.2c0.5-0.3,1.4-0.7,2.5-0.7c2.1,0,3,1.4,3,3.8
			V404.5z M234.8,401.4c-0.9,0-2.9,0.2-2.9,2.5c0,1.4,0.7,1.9,1.3,1.9c0.7,0,1.4-0.5,1.6-1.6c0-0.2,0.1-0.4,0.1-0.6V401.4z"/>
		<path fill="#888888" d="M240.5,396.3l1.3,6c0.2,0.7,0.3,1.7,0.5,2.6h0.1c0.1-0.9,0.3-1.8,0.4-2.6l1.3-6h1.7l-2.8,10.6h-1.5
			l-2.8-10.6H240.5z"/>
		<path fill="#888888" d="M253.8,404.5c0,0.8,0,1.7,0.1,2.4h-1.5l-0.1-1.1h-0.1c-0.5,0.8-1.2,1.3-2.1,1.3c-1.4,0-2.5-1.2-2.5-3
			c0-2.7,2.1-3.9,4.5-3.9v-0.3c0-1.4-0.4-2.4-1.7-2.4c-0.7,0-1.3,0.2-1.8,0.5l-0.4-1.2c0.5-0.3,1.4-0.7,2.5-0.7c2.1,0,3,1.4,3,3.8
			V404.5z M252.2,401.4c-0.9,0-2.9,0.2-2.9,2.5c0,1.4,0.7,1.9,1.3,1.9c0.7,0,1.4-0.5,1.6-1.6c0-0.2,0.1-0.4,0.1-0.6V401.4z"/>
		<path fill="#888888" d="M259.2,393.5c0,0.7-0.4,1.1-1,1.1c-0.5,0-1-0.4-1-1.1c0-0.7,0.4-1.1,1-1.1
			C258.8,392.4,259.2,392.9,259.2,393.5z M257.3,406.9v-10.6h1.7v10.6H257.3z"/>
		<path fill="#888888" d="M262.5,391.7h1.7v15.2h-1.7V391.7z"/>
		<path fill="#888888" d="M273.4,404.5c0,0.8,0,1.7,0.1,2.4H272l-0.1-1.1h-0.1c-0.5,0.8-1.2,1.3-2.1,1.3c-1.4,0-2.5-1.2-2.5-3
			c0-2.7,2.1-3.9,4.5-3.9v-0.3c0-1.4-0.4-2.4-1.7-2.4c-0.7,0-1.3,0.2-1.8,0.5l-0.4-1.2c0.5-0.3,1.4-0.7,2.5-0.7c2.1,0,3,1.4,3,3.8
			V404.5z M271.7,401.4c-0.9,0-2.9,0.2-2.9,2.5c0,1.4,0.7,1.9,1.3,1.9c0.7,0,1.4-0.5,1.6-1.6c0-0.2,0.1-0.4,0.1-0.6V401.4z"/>
		<path fill="#888888" d="M276.9,391.7h1.7v5.9h0c0.5-1.1,1.3-1.4,2.3-1.4c1.7,0,2.9,1.9,2.9,5.4c0,3.8-1.6,5.6-3.2,5.6
			c-1.1,0-1.7-0.7-2.1-1.6h-0.1l-0.1,1.4h-1.4c0-0.6,0.1-1.8,0.1-2.6V391.7z M278.5,403.2c0,0.2,0,0.5,0.1,0.7
			c0.4,1.6,1.1,1.8,1.6,1.8c1.4,0,1.8-1.8,1.8-4.1c0-2.1-0.5-4-1.9-4c-0.8,0-1.4,1-1.6,1.9c0,0.2,0,0.5,0,0.7V403.2z"/>
		<path fill="#888888" d="M286.8,391.7h1.7v15.2h-1.7V391.7z"/>
		<path fill="#888888" d="M293.3,401.8c0,3.3,1.3,4,2.5,4c0.7,0,1.3-0.2,1.8-0.4l0.3,1.2c-0.6,0.3-1.5,0.5-2.4,0.5
			c-2.6,0-3.9-2.1-3.9-5.3c0-3.4,1.5-5.6,3.6-5.6c2.2,0,3,2.3,3,4.7c0,0.4,0,0.7,0,1H293.3z M296.6,400.5c0-2.1-0.8-3.1-1.6-3.1
			c-1.1,0-1.7,1.6-1.7,3.1H296.6z"/>
		<path fill="#888888" d="M307.8,393.8v2.5h2v1.3h-2v6.3c0,1.4,0.5,1.8,1.1,1.8c0.3,0,0.5,0,0.7-0.1l0.1,1.3
			c-0.3,0.1-0.7,0.2-1.3,0.2c-0.7,0-1.3-0.2-1.7-0.6c-0.4-0.5-0.6-1.2-0.6-2.7v-6.2h-1.3v-1.3h1.3v-1.8L307.8,393.8z"/>
		<path fill="#888888" d="M318.8,401.6c0,4.1-1.9,5.5-3.5,5.5c-1.9,0-3.5-1.7-3.5-5.5c0-3.9,1.7-5.5,3.6-5.5
			C317.3,396.1,318.8,397.9,318.8,401.6z M313.5,401.6c0,1.8,0.3,4.2,1.8,4.2c1.5,0,1.8-2.5,1.8-4.2c0-1.6-0.3-4.1-1.8-4.1
			C313.8,397.5,313.5,400,313.5,401.6z"/>
		<path fill="#888888" d="M332.7,391.7v12.7c0,0.7,0.1,1.9,0.1,2.6h-1.5l-0.1-1.3h-0.1c-0.4,0.7-1.1,1.5-2.2,1.5
			c-1.8,0-3.1-1.9-3.1-5.5c0-3.8,1.6-5.5,3.2-5.5c0.8,0,1.5,0.4,2,1.3h0v-5.7H332.7z M331.1,400.4c0-0.2,0-0.5,0-0.7
			c-0.1-1.1-0.8-2.1-1.6-2.1c-1.4,0-1.9,2-1.9,4.1c0,2.2,0.6,4,1.8,4c0.5,0,1.3-0.3,1.6-1.8c0-0.2,0.1-0.4,0.1-0.7V400.4z"/>
		<path fill="#888888" d="M342.7,401.6c0,4.1-1.9,5.5-3.5,5.5c-1.9,0-3.5-1.7-3.5-5.5c0-3.9,1.7-5.5,3.6-5.5
			C341.2,396.1,342.7,397.9,342.7,401.6z M337.4,401.6c0,1.8,0.3,4.2,1.8,4.2c1.5,0,1.8-2.5,1.8-4.2c0-1.6-0.3-4.1-1.8-4.1
			C337.7,397.5,337.4,400,337.4,401.6z"/>
		<path fill="#888888" d="M346.4,396.3l1,5.2c0.2,1.1,0.4,2.3,0.6,3.4h0.1c0.2-1.1,0.4-2.3,0.7-3.3l1.2-5.3h1.3l1.2,5.1
			c0.3,1.2,0.5,2.3,0.7,3.5h0.1c0.1-1.1,0.3-2.2,0.6-3.4l1-5.2h1.7l-2.7,10.6h-1.4l-1.2-5.2c-0.3-1-0.4-2-0.6-3.2h0
			c-0.2,1.3-0.4,2.2-0.6,3.3l-1.3,5.1h-1.4l-2.6-10.6H346.4z"/>
		<path fill="#888888" d="M359.1,399c0-1.3-0.1-1.9-0.1-2.8h1.5l0.1,1.3h0c0.5-0.9,1.3-1.5,2.4-1.5c1.5,0,2.6,1.1,2.6,3.7v7.2H364
			v-6.8c0-1.3-0.2-2.5-1.5-2.5c-0.7,0-1.4,0.6-1.6,1.7c-0.1,0.3-0.1,0.6-0.1,1v6.7h-1.7V399z"/>
		<path fill="#888888" d="M369.1,391.7h1.7v15.2h-1.7V391.7z"/>
		<path fill="#888888" d="M381,401.6c0,4.1-1.9,5.5-3.5,5.5c-1.9,0-3.5-1.7-3.5-5.5c0-3.9,1.7-5.5,3.6-5.5
			C379.5,396.1,381,397.9,381,401.6z M375.7,401.6c0,1.8,0.3,4.2,1.8,4.2c1.5,0,1.8-2.5,1.8-4.2c0-1.6-0.3-4.1-1.8-4.1
			C376,397.5,375.7,400,375.7,401.6z"/>
		<path fill="#888888" d="M389.6,404.5c0,0.8,0,1.7,0.1,2.4h-1.5l-0.1-1.1H388c-0.5,0.8-1.2,1.3-2.1,1.3c-1.4,0-2.5-1.2-2.5-3
			c0-2.7,2.1-3.9,4.5-3.9v-0.3c0-1.4-0.4-2.4-1.7-2.4c-0.7,0-1.3,0.2-1.8,0.5l-0.4-1.2c0.5-0.3,1.4-0.7,2.5-0.7c2.1,0,3,1.4,3,3.8
			V404.5z M387.9,401.4c-0.9,0-2.9,0.2-2.9,2.5c0,1.4,0.7,1.9,1.3,1.9c0.7,0,1.4-0.5,1.6-1.6c0-0.2,0.1-0.4,0.1-0.6V401.4z"/>
		<path fill="#888888" d="M399.5,391.7v12.7c0,0.7,0.1,1.9,0.1,2.6h-1.5l-0.1-1.3h-0.1c-0.4,0.7-1.1,1.5-2.2,1.5
			c-1.8,0-3.1-1.9-3.1-5.5c0-3.8,1.6-5.5,3.2-5.5c0.8,0,1.5,0.4,2,1.3h0v-5.7H399.5z M397.8,400.4c0-0.2,0-0.5,0-0.7
			c-0.1-1.1-0.8-2.1-1.6-2.1c-1.4,0-1.9,2-1.9,4.1c0,2.2,0.6,4,1.8,4c0.5,0,1.3-0.3,1.6-1.8c0-0.2,0.1-0.4,0.1-0.7V400.4z"/>
		<path fill="#888888" d="M407.9,406.9v-9.4h-1.3v-1.3h1.3v-0.6c0-1.2,0.2-2.3,0.9-3.2c0.6-0.7,1.5-0.9,2.1-0.9c0.6,0,1,0.1,1.3,0.3
			l-0.3,1.3c-0.2-0.1-0.5-0.2-0.9-0.2c-1.2,0-1.5,1.3-1.5,2.7v0.7h1.9v1.3h-1.9v9.4H407.9z"/>
		<path fill="#888888" d="M420.1,401.6c0,4.1-1.9,5.5-3.5,5.5c-1.9,0-3.5-1.7-3.5-5.5c0-3.9,1.7-5.5,3.6-5.5
			C418.6,396.1,420.1,397.9,420.1,401.6z M414.8,401.6c0,1.8,0.3,4.2,1.8,4.2c1.5,0,1.8-2.5,1.8-4.2c0-1.6-0.3-4.1-1.8-4.1
			C415.1,397.5,414.8,400,414.8,401.6z"/>
		<path fill="#888888" d="M423.1,399c0-0.9-0.1-2-0.1-2.8h1.5l0.1,1.7h0c0.4-1,1.3-1.8,2.2-1.8c0.1,0,0.2,0,0.4,0v1.7
			c-0.1,0-0.2,0-0.4,0c-1.1,0-1.9,1-2,2.2c0,0.3-0.1,0.6-0.1,1v5.9h-1.7V399z"/>
		<path fill="#888888" d="M434.5,406.9v-9.4h-1.3v-1.3h1.3v-0.6c0-1.2,0.2-2.3,0.9-3.2c0.6-0.7,1.5-0.9,2.1-0.9c0.6,0,1,0.1,1.3,0.3
			l-0.3,1.3c-0.2-0.1-0.5-0.2-0.9-0.2c-1.2,0-1.5,1.3-1.5,2.7v0.7h1.9v1.3h-1.9v9.4H434.5z"/>
		<path fill="#888888" d="M440.3,399c0-0.9-0.1-2-0.1-2.8h1.5l0.1,1.7h0c0.4-1,1.3-1.8,2.2-1.8c0.1,0,0.2,0,0.4,0v1.7
			c-0.1,0-0.2,0-0.4,0c-1.1,0-1.9,1-2,2.2c0,0.3-0.1,0.6-0.1,1v5.9h-1.7V399z"/>
		<path fill="#888888" d="M447.7,401.8c0,3.3,1.3,4,2.5,4c0.7,0,1.3-0.2,1.8-0.4l0.3,1.2c-0.6,0.3-1.5,0.5-2.4,0.5
			c-2.6,0-3.9-2.1-3.9-5.3c0-3.4,1.5-5.6,3.6-5.6c2.2,0,3,2.3,3,4.7c0,0.4,0,0.7,0,1H447.7z M451.1,400.5c0-2.1-0.8-3.1-1.6-3.1
			c-1.1,0-1.7,1.6-1.7,3.1H451.1z"/>
		<path fill="#888888" d="M456.8,401.8c0,3.3,1.3,4,2.5,4c0.7,0,1.3-0.2,1.8-0.4l0.3,1.2c-0.6,0.3-1.5,0.5-2.4,0.5
			c-2.6,0-3.9-2.1-3.9-5.3c0-3.4,1.5-5.6,3.6-5.6c2.2,0,3,2.3,3,4.7c0,0.4,0,0.7,0,1H456.8z M460.2,400.5c0-2.1-0.8-3.1-1.6-3.1
			c-1.1,0-1.7,1.6-1.7,3.1H460.2z"/>
	</g>
</g>
<g>
	<path fill="#FFFFFF" d="M23.2,108.6c0,15.7,20.4,28.4,45.6,28.4c25.2,0,45.6-12.7,45.6-28.4c0-15.7-20.4-28.4-45.6-28.4
		C43.7,80.2,23.2,92.9,23.2,108.6"/>
	<path fill="#E6162D" d="M69.9,134.7c-22.3,2.2-41.6-7.9-43-22.5c-1.4-14.6,15.5-28.3,37.8-30.5c22.3-2.2,41.6,7.9,43,22.5
		C109.1,118.9,92.2,132.5,69.9,134.7 M114.5,86.1c-1.9-0.6-3.2-1-2.2-3.4c2.2-5.4,2.4-10.1,0-13.4C108,63,96,63.3,82.3,69.1
		c0,0-4.3,1.9-3.2-1.5c2.1-6.8,1.8-12.5-1.5-15.7c-7.4-7.4-27.2,0.3-44.2,17.2c-12.7,12.7-20.1,26.2-20.1,37.8
		c0,22.3,28.6,35.8,56.5,35.8c36.6,0,61-21.3,61-38.2C130.9,94.3,122.3,88.5,114.5,86.1"/>
	<path fill="#FF9933" d="M138.9,45.3c-8.8-9.8-21.9-13.5-33.9-11h0c-2.8,0.6-4.6,3.3-4,6.1c0.6,2.8,3.3,4.6,6.1,4
		c8.6-1.8,17.8,0.8,24.1,7.8c6.3,7,8,16.5,5.3,24.8l0,0c-0.9,2.7,0.6,5.6,3.3,6.5c2.7,0.9,5.6-0.6,6.5-3.3c0,0,0,0,0,0
		C150.1,68.5,147.7,55.1,138.9,45.3"/>
	<path fill="#FF9933" d="M125.3,57.6c-4.3-4.8-10.7-6.6-16.5-5.3c-2.4,0.5-3.9,2.9-3.4,5.3c0.5,2.4,2.9,3.9,5.3,3.4v0
		c2.9-0.6,6,0.3,8.1,2.6c2.1,2.3,2.7,5.5,1.8,8.3h0c-0.8,2.3,0.5,4.8,2.9,5.6c2.3,0.7,4.8-0.5,5.6-2.9
		C130.8,68.9,129.6,62.4,125.3,57.6"/>
	<path d="M71.2,108.2c-0.8,1.3-2.5,2-3.9,1.4c-1.3-0.5-1.7-2-1-3.3c0.8-1.3,2.4-1.9,3.8-1.4C71.4,105.4,71.9,106.9,71.2,108.2
		 M64,117.3c-2.2,3.4-6.8,4.9-10.3,3.4c-3.4-1.6-4.4-5.6-2.3-8.9c2.1-3.3,6.6-4.8,10.1-3.4C65.1,109.9,66.2,113.8,64,117.3 M72.2,93
		c-10.6-2.8-22.6,2.5-27.2,11.9c-4.7,9.5-0.2,20.1,10.6,23.6c11.1,3.6,24.2-1.9,28.8-12.2C88.7,106.2,83.1,95.8,72.2,93"/>
</g>
</svg>
