<?xml version="1.0" encoding="utf-8"?>
<!-- Generator: Adobe Illustrator 17.0.0, SVG Export Plug-In . SVG Version: 6.00 Build 0)  -->
<!DOCTYPE svg PUBLIC "-//W3C//DTD SVG 1.1//EN" "http://www.w3.org/Graphics/SVG/1.1/DTD/svg11.dtd">
<svg version="1.1" id="图层_1" xmlns="http://www.w3.org/2000/svg" xmlns:xlink="http://www.w3.org/1999/xlink" x="0px" y="0px"
	 width="550.006px" height="366.249px" viewBox="0 0 550.006 366.249" enable-background="new 0 0 550.006 366.249"
	 xml:space="preserve">
<g>
	<circle fill="#0075b2" cx="346.479" cy="193.223" r="29.185"/>
	<path fill="#0075b2" d="M548.76,272.916c-6.667-90-66.667-218.667-66.667-218.667s-2.167-3.417-11.417-7.417
		c0,0-6.25-7.5-6.5-18.75c0,0-78-51.75-115.25-14.75H201.079c-37.25-37-115.25,14.75-115.25,14.75c-0.25,11.25-6.5,18.75-6.5,18.75
		c-9.25,4-11.417,7.417-11.417,7.417s-60,128.667-66.667,218.667c0,0-14.667,79.333,56.667,93.333c0,0,19.917-11.292,38.667-33.292
		c0,0,51-52.708,61-54.708c0,0,6.333-4,36.5-6h161.848c30.167,2,36.5,6,36.5,6c10,2,61,54.708,61,54.708
		c18.75,22,38.667,33.292,38.667,33.292C563.427,352.249,548.76,272.916,548.76,272.916z M414.831,55.782
		c10.033,0,18.167,8.133,18.167,18.167c0,10.033-8.134,18.167-18.167,18.167c-10.033,0-18.167-8.133-18.167-18.167
		C396.664,63.916,404.798,55.782,414.831,55.782z M135.31,152.741c-23.185,0-41.979-18.795-41.979-41.979
		s18.795-41.979,41.979-41.979c23.184,0,41.979,18.795,41.979,41.979S158.494,152.741,135.31,152.741z M243.292,209.647
		c0,1.547-0.875,2.801-1.954,2.801h-24.763v24.763c0,1.079-1.254,1.954-2.801,1.954h-21.945c-1.547,0-2.801-0.875-2.801-1.954
		v-24.763h-24.763c-1.079,0-1.954-1.254-1.954-2.801v-21.945c0-1.547,0.875-2.801,1.954-2.801h24.763v-24.763
		c0-1.079,1.254-1.954,2.801-1.954h21.945c1.547,0,2.801,0.875,2.801,1.954v24.763h24.763c1.079,0,1.954,1.254,1.954,2.801V209.647z
		 M234.331,121.449c-6.443,0-11.667-5.223-11.667-11.667c0-6.443,5.223-11.667,11.667-11.667c6.443,0,11.667,5.223,11.667,11.667
		C245.997,116.226,240.774,121.449,234.331,121.449z M314.331,98.116c6.443,0,11.667,5.223,11.667,11.667
		c0,6.443-5.223,11.667-11.667,11.667c-6.443,0-11.667-5.223-11.667-11.667C302.664,103.339,307.887,98.116,314.331,98.116z
		 M346.977,235.699c-23.185,0-41.979-18.795-41.979-41.979s18.795-41.979,41.979-41.979s41.979,18.795,41.979,41.979
		S370.161,235.699,346.977,235.699z M377.831,128.449c-10.033,0-18.167-8.133-18.167-18.167c0-10.033,8.133-18.167,18.167-18.167
		c10.033,0,18.167,8.133,18.167,18.167C395.997,120.315,387.864,128.449,377.831,128.449z M414.831,164.782
		c-10.033,0-18.167-8.133-18.167-18.167c0-10.033,8.133-18.167,18.167-18.167c10.033,0,18.167,8.134,18.167,18.167
		C432.997,156.649,424.864,164.782,414.831,164.782z M451.164,128.928c-10.033,0-18.167-8.134-18.167-18.167
		c0-10.033,8.134-18.167,18.167-18.167c10.033,0,18.167,8.133,18.167,18.167C469.331,120.795,461.197,128.928,451.164,128.928z"/>
	<circle fill="#0075b2" cx="134.813" cy="110.264" r="29.185"/>
</g>
</svg>
